<?xml version="1.0" encoding="UTF-8" standalone="no"?>
<!DOCTYPE svg PUBLIC "-//W3C//DTD SVG 1.1//EN"
 "http://www.w3.org/Graphics/SVG/1.1/DTD/svg11.dtd">
<!-- Generated by graphviz version 2.40.1 (20161225.0304)
 -->
<!-- Title: %3 Pages: 1 -->
<svg width="1116pt" height="404pt"
 viewBox="0.00 0.00 1115.76 404.00" xmlns="http://www.w3.org/2000/svg" xmlns:xlink="http://www.w3.org/1999/xlink">
<g id="graph0" class="graph" transform="scale(1 1) rotate(0) translate(4 400)">
<title>%3</title>
<polygon fill="#ffffff" stroke="transparent" points="-4,4 -4,-400 1111.7633,-400 1111.7633,4 -4,4"/>
<!-- [root] local_file.key_data (expand) -->
<g id="node1" class="node">
<title>[root] local_file.key_data (expand)</title>
<polygon fill="none" stroke="#000000" points="635.2349,-180 486.2349,-180 486.2349,-144 635.2349,-144 635.2349,-180"/>
<text text-anchor="middle" x="560.7349" y="-158.3" font-family="Times,serif" font-size="14.00" fill="#000000">local_file.key_data</text>
</g>
<!-- [root] provider[&quot;registry.terraform.io/hashicorp/local&quot;] -->
<g id="node2" class="node">
<title>[root] provider[&quot;registry.terraform.io/hashicorp/local&quot;]</title>
<polygon fill="none" stroke="#000000" points="332.7349,-108 -.2351,-90 332.7349,-72 665.7049,-90 332.7349,-108"/>
<text text-anchor="middle" x="332.7349" y="-86.3" font-family="Times,serif" font-size="14.00" fill="#000000">provider[&quot;registry.terraform.io/hashicorp/local&quot;]</text>
</g>
<!-- [root] local_file.key_data (expand)&#45;&gt;[root] provider[&quot;registry.terraform.io/hashicorp/local&quot;] -->
<g id="edge1" class="edge">
<title>[root] local_file.key_data (expand)&#45;&gt;[root] provider[&quot;registry.terraform.io/hashicorp/local&quot;]</title>
<path fill="none" stroke="#000000" d="M503.4952,-143.9243C469.2784,-133.119 425.9024,-119.4213 391.4304,-108.5354"/>
<polygon fill="#000000" stroke="#000000" points="392.0895,-105.0732 381.4997,-105.3994 389.9815,-111.7483 392.0895,-105.0732"/>
</g>
<!-- [root] tls_private_key.private_key (expand) -->
<g id="node5" class="node">
<title>[root] tls_private_key.private_key (expand)</title>
<polygon fill="none" stroke="#000000" points="896.2349,-108 683.2349,-108 683.2349,-72 896.2349,-72 896.2349,-108"/>
<text text-anchor="middle" x="789.7349" y="-86.3" font-family="Times,serif" font-size="14.00" fill="#000000">tls_private_key.private_key</text>
</g>
<!-- [root] local_file.key_data (expand)&#45;&gt;[root] tls_private_key.private_key (expand) -->
<g id="edge2" class="edge">
<title>[root] local_file.key_data (expand)&#45;&gt;[root] tls_private_key.private_key (expand)</title>
<path fill="none" stroke="#000000" d="M618.2257,-143.9243C649.9397,-133.9531 689.4876,-121.5188 722.6125,-111.104"/>
<polygon fill="#000000" stroke="#000000" points="723.7307,-114.4214 732.2205,-108.0831 721.6311,-107.7437 723.7307,-114.4214"/>
</g>
<!-- [root] provider[&quot;registry.terraform.io/hashicorp/tls&quot;] -->
<g id="node3" class="node">
<title>[root] provider[&quot;registry.terraform.io/hashicorp/tls&quot;]</title>
<polygon fill="none" stroke="#000000" points="789.7349,-36 471.6781,-18 789.7349,0 1107.7918,-18 789.7349,-36"/>
<text text-anchor="middle" x="789.7349" y="-14.3" font-family="Times,serif" font-size="14.00" fill="#000000">provider[&quot;registry.terraform.io/hashicorp/tls&quot;]</text>
</g>
<!-- [root] tls_cert_request.csr (expand) -->
<g id="node4" class="node">
<title>[root] tls_cert_request.csr (expand)</title>
<polygon fill="none" stroke="#000000" points="839.2349,-252 678.2349,-252 678.2349,-216 839.2349,-216 839.2349,-252"/>
<text text-anchor="middle" x="758.7349" y="-230.3" font-family="Times,serif" font-size="14.00" fill="#000000">tls_cert_request.csr</text>
</g>
<!-- [root] tls_cert_request.csr (expand)&#45;&gt;[root] local_file.key_data (expand) -->
<g id="edge7" class="edge">
<title>[root] tls_cert_request.csr (expand)&#45;&gt;[root] local_file.key_data (expand)</title>
<path fill="none" stroke="#000000" d="M709.0267,-215.9243C681.959,-206.0815 648.2911,-193.8386 619.88,-183.5073"/>
<polygon fill="#000000" stroke="#000000" points="621.0576,-180.2114 610.4636,-180.0831 618.6654,-186.7899 621.0576,-180.2114"/>
</g>
<!-- [root] tls_private_key.private_key (expand)&#45;&gt;[root] provider[&quot;registry.terraform.io/hashicorp/tls&quot;] -->
<g id="edge8" class="edge">
<title>[root] tls_private_key.private_key (expand)&#45;&gt;[root] provider[&quot;registry.terraform.io/hashicorp/tls&quot;]</title>
<path fill="none" stroke="#000000" d="M789.7349,-71.8314C789.7349,-64.131 789.7349,-54.9743 789.7349,-46.4166"/>
<polygon fill="#000000" stroke="#000000" points="793.235,-46.4132 789.7349,-36.4133 786.235,-46.4133 793.235,-46.4132"/>
</g>
<!-- [root] provider[&quot;registry.terraform.io/hashicorp/local&quot;] (close) -->
<g id="node6" class="node">
<title>[root] provider[&quot;registry.terraform.io/hashicorp/local&quot;] (close)</title>
<ellipse fill="none" stroke="#000000" cx="362.7349" cy="-234" rx="297.8473" ry="18"/>
<text text-anchor="middle" x="362.7349" y="-230.3" font-family="Times,serif" font-size="14.00" fill="#000000">[root] provider[&quot;registry.terraform.io/hashicorp/local&quot;] (close)</text>
</g>
<!-- [root] provider[&quot;registry.terraform.io/hashicorp/local&quot;] (close)&#45;&gt;[root] local_file.key_data (expand) -->
<g id="edge3" class="edge">
<title>[root] provider[&quot;registry.terraform.io/hashicorp/local&quot;] (close)&#45;&gt;[root] local_file.key_data (expand)</title>
<path fill="none" stroke="#000000" d="M411.6788,-216.2022C438.8411,-206.325 472.8257,-193.967 501.4823,-183.5464"/>
<polygon fill="#000000" stroke="#000000" points="502.777,-186.7999 510.9788,-180.0931 500.3848,-180.2213 502.777,-186.7999"/>
</g>
<!-- [root] provider[&quot;registry.terraform.io/hashicorp/tls&quot;] (close) -->
<g id="node7" class="node">
<title>[root] provider[&quot;registry.terraform.io/hashicorp/tls&quot;] (close)</title>
<ellipse fill="none" stroke="#000000" cx="737.7349" cy="-306" rx="287.0492" ry="18"/>
<text text-anchor="middle" x="737.7349" y="-302.3" font-family="Times,serif" font-size="14.00" fill="#000000">[root] provider[&quot;registry.terraform.io/hashicorp/tls&quot;] (close)</text>
</g>
<!-- [root] provider[&quot;registry.terraform.io/hashicorp/tls&quot;] (close)&#45;&gt;[root] tls_cert_request.csr (expand) -->
<g id="edge4" class="edge">
<title>[root] provider[&quot;registry.terraform.io/hashicorp/tls&quot;] (close)&#45;&gt;[root] tls_cert_request.csr (expand)</title>
<path fill="none" stroke="#000000" d="M743.0341,-287.8314C745.3047,-280.0463 748.0095,-270.7729 750.529,-262.1347"/>
<polygon fill="#000000" stroke="#000000" points="753.9243,-262.9933 753.3644,-252.4133 747.2043,-261.0332 753.9243,-262.9933"/>
</g>
<!-- [root] root -->
<g id="node8" class="node">
<title>[root] root</title>
<ellipse fill="none" stroke="#000000" cx="559.7349" cy="-378" rx="58.4896" ry="18"/>
<text text-anchor="middle" x="559.7349" y="-374.3" font-family="Times,serif" font-size="14.00" fill="#000000">[root] root</text>
</g>
<!-- [root] root&#45;&gt;[root] provider[&quot;registry.terraform.io/hashicorp/local&quot;] (close) -->
<g id="edge5" class="edge">
<title>[root] root&#45;&gt;[root] provider[&quot;registry.terraform.io/hashicorp/local&quot;] (close)</title>
<path fill="none" stroke="#000000" d="M520.0178,-364.6572C495.9871,-355.4522 465.5017,-341.6875 441.7349,-324 417.7625,-306.1595 395.806,-279.9819 381.1584,-260.4527"/>
<polygon fill="#000000" stroke="#000000" points="383.8907,-258.26 375.1529,-252.2681 378.2469,-262.4011 383.8907,-258.26"/>
</g>
<!-- [root] root&#45;&gt;[root] provider[&quot;registry.terraform.io/hashicorp/tls&quot;] (close) -->
<g id="edge6" class="edge">
<title>[root] root&#45;&gt;[root] provider[&quot;registry.terraform.io/hashicorp/tls&quot;] (close)</title>
<path fill="none" stroke="#000000" d="M595.3281,-363.6028C620.7592,-353.316 655.4223,-339.295 684.1824,-327.6617"/>
<polygon fill="#000000" stroke="#000000" points="685.7297,-330.8114 693.6876,-323.8169 683.1048,-324.3221 685.7297,-330.8114"/>
</g>
</g>
</svg>
